<svg width="62" height="62" viewBox="0 0 62 62" fill="none" xmlns="http://www.w3.org/2000/svg">
    <g id="Frame 3" className="animated slideInLeft">
    <g id="9 - Email 1" clip-path="url(#clip0_35_64)">
    <path id="Vector" fill-rule="evenodd" clip-rule="evenodd" d="M12.8011 29.1484L24.3661 37.1556L19.4611 42.0738C19.3273 42.2019 19.2203 42.3554 19.1465 42.5253C19.0726 42.6952 19.0334 42.8781 19.0311 43.0633C19.0287 43.2485 19.0633 43.4323 19.1328 43.604C19.2023 43.7757 19.3053 43.9318 19.4358 44.0633C19.5663 44.1948 19.7217 44.2989 19.8929 44.3697C20.0642 44.4405 20.2478 44.4764 20.4331 44.4755C20.6184 44.4745 20.8016 44.4367 20.9721 44.3642C21.1426 44.2917 21.2969 44.1859 21.4261 44.0531L26.7061 38.775L30.2011 41.2041C30.4346 41.366 30.712 41.4528 30.9961 41.4528C31.2802 41.4528 31.5576 41.366 31.7911 41.2041L35.2861 38.775L40.5511 44.0531C40.6811 44.1831 40.8354 44.2862 41.0053 44.3565C41.1752 44.4268 41.3572 44.4631 41.5411 44.4631C41.725 44.4631 41.907 44.4268 42.0769 44.3565C42.2467 44.2862 42.4011 44.1831 42.5311 44.0531C42.6611 43.9232 42.7642 43.7689 42.8346 43.5991C42.905 43.4293 42.9412 43.2473 42.9412 43.0635C42.9412 42.8797 42.905 42.6977 42.8346 42.5279C42.7642 42.3581 42.6611 42.2038 42.5311 42.0738L37.6261 37.1556L49.1911 29.1484V44.5629C49.1951 45.1712 49.0784 45.7743 48.8478 46.3373C48.6172 46.9002 48.2773 47.4119 47.8477 47.8427C47.4181 48.2736 46.9073 48.615 46.3449 48.8474C45.7825 49.0797 45.1796 49.1983 44.5711 49.1963H17.4961C16.8876 49.1983 16.2847 49.0797 15.7223 48.8474C15.1599 48.615 14.6491 48.2736 14.2195 47.8427C13.7899 47.4119 13.45 46.9002 13.2194 46.3373C12.9888 45.7743 12.8721 45.1712 12.8761 44.5629L12.8011 29.1484ZM23.4961 25.0849C23.1491 25.1208 22.8278 25.284 22.5942 25.543C22.3606 25.8019 22.2313 26.1382 22.2313 26.4869C22.2313 26.8356 22.3606 27.1719 22.5942 27.4308C22.8278 27.6898 23.1491 27.853 23.4961 27.8889H38.4961C38.6925 27.9092 38.8909 27.8881 39.0786 27.8269C39.2663 27.7657 39.439 27.6658 39.5856 27.5336C39.7322 27.4015 39.8494 27.24 39.9296 27.0597C40.0099 26.8794 40.0513 26.6842 40.0513 26.4869C40.0513 26.2896 40.0099 26.0944 39.9296 25.9141C39.8494 25.7338 39.7322 25.5723 39.5856 25.4402C39.439 25.308 39.2663 25.2081 39.0786 25.1469C38.8909 25.0857 38.6925 25.0646 38.4961 25.0849H23.4961ZM44.4961 24.4401L48.0361 26.5694L44.4961 29.0285V24.4401ZM17.4961 24.4401V28.9385L13.9861 26.5694L17.4961 24.4401ZM23.3161 17.4976C22.9382 17.5215 22.5852 17.6944 22.3348 17.9784C22.0845 18.2625 21.9572 18.6343 21.9811 19.0121C22.005 19.3899 22.178 19.7427 22.4621 19.993C22.7462 20.2433 23.1182 20.3705 23.4961 20.3466H30.9961C31.374 20.3466 31.7365 20.1965 32.0037 19.9294C32.271 19.6622 32.4211 19.2999 32.4211 18.9221C32.4211 18.5443 32.271 18.182 32.0037 17.9148C31.7365 17.6477 31.374 17.4976 30.9961 17.4976H23.3161ZM36.9061 15.2334L40.0711 18.9971H36.9061V15.2334ZM21.9961 12.8043H34.1611V20.4965C34.1611 20.8704 34.3096 21.2289 34.5741 21.4932C34.8385 21.7575 35.1971 21.906 35.5711 21.906H41.7061V30.9928L30.9961 38.3402L20.3311 30.9928V14.4987C20.33 14.2862 20.372 14.0757 20.4545 13.8798C20.537 13.684 20.6583 13.5068 20.8111 13.3591C20.9539 13.1831 21.1346 13.0418 21.3399 12.9457C21.5451 12.8496 21.7695 12.8013 21.9961 12.8043ZM35.4961 10.0003H21.9961C20.8026 10.0003 19.658 10.4742 18.8141 11.3178C17.9702 12.1614 17.4961 13.3056 17.4961 14.4987V21.2463L10.7611 25.2948C10.5386 25.409 10.3505 25.5803 10.2161 25.7911C10.0817 26.0019 10.0057 26.2446 9.99609 26.4944V44.5629C10.0159 46.5383 10.8147 48.4261 12.2191 49.8159C13.6235 51.2058 15.5199 51.9854 17.4961 51.9853H44.6461C46.5962 51.9464 48.4544 51.1496 49.8266 49.7639C51.1988 48.3782 51.977 46.5126 51.9961 44.5629V26.4944C51.9946 26.2254 51.9161 25.9625 51.7699 25.7366C51.6237 25.5108 51.4159 25.3315 51.1711 25.2198L44.4961 21.1713V20.8564C44.5539 20.6299 44.5525 20.3924 44.4921 20.1666C44.4317 19.9408 44.3143 19.7343 44.1511 19.5669L36.6511 10.5701C36.5213 10.3864 36.3477 10.2381 36.146 10.1386C35.9442 10.0391 35.7209 9.99155 35.4961 10.0003Z" fill="#1C85E8"/>
    </g>
    </g>
    <defs>
    <clipPath id="clip0_35_64">
    <rect width="42" height="42" fill="white" transform="translate(9.99609 10)"/>
    </clipPath>
    </defs>
</svg>
