<svg width="62" height="62" viewBox="0 0 62 62" fill="none" xmlns="http://www.w3.org/2000/svg">
    <g id="Frame 4" className="animated slideInRight">
    <g id="14 - Map Location 1" clip-path="url(#clip0_35_74)">
    <path id="Vector" fill-rule="evenodd" clip-rule="evenodd" d="M37 27.766C37.3238 27.7412 37.6473 27.8173 37.9287 27.9842C38.21 28.1511 38.4361 28.4013 38.5777 28.7022C38.7193 29.0031 38.7698 29.3408 38.7228 29.6716C38.6757 30.0025 38.5331 30.3111 38.3136 30.5575C38.0941 30.8039 37.8078 30.9766 37.4918 31.0534C37.1758 31.1301 36.8446 31.1073 36.5414 30.9879C36.2381 30.8685 35.9766 30.658 35.7909 30.3837C35.6053 30.1095 35.5039 29.784 35.5 29.4497C35.4876 29.0231 35.6375 28.6084 35.9177 28.2939C36.1978 27.9794 36.5862 27.79 37 27.766ZM37 24.8156C36.1314 24.8309 35.2864 25.1092 34.5703 25.6157C33.8542 26.1222 33.2987 26.8346 32.9732 27.664C32.6476 28.4934 32.5663 29.4032 32.7394 30.2799C32.9125 31.1566 33.3324 31.9614 33.9467 32.594C34.561 33.2266 35.3425 33.6589 36.1938 33.8372C37.0451 34.0155 37.9286 33.9318 38.734 33.5965C39.5394 33.2612 40.2312 32.6892 40.7231 31.9518C41.2149 31.2144 41.4851 30.3442 41.5 29.4497C41.5 28.2207 41.0259 27.042 40.182 26.1729C39.3381 25.3039 38.1935 24.8156 37 24.8156ZM37 23.0547C37.8164 23.0464 38.6261 23.2063 39.3815 23.5251C40.1369 23.8439 40.8227 24.3152 41.3986 24.9111C41.9745 25.507 42.4288 26.2156 42.7347 26.995C43.0406 27.7745 43.192 28.6091 43.18 29.4497C43.0075 31.9472 42.3115 34.3766 41.14 36.5707C40.5978 37.6451 39.8884 38.6209 39.04 39.4593C38.5103 40.029 37.794 40.3758 37.03 40.4324C36.2691 40.3809 35.5557 40.033 35.035 39.4593C34.1866 38.6209 33.4772 37.6451 32.935 36.5707C31.7568 34.3795 31.0604 31.9486 30.895 29.4497C30.8891 28.6202 31.0426 27.7977 31.3467 27.0296C31.6509 26.2615 32.0996 25.5629 32.6671 24.9742C33.2346 24.3855 33.9096 23.9183 34.6533 23.5994C35.3969 23.2806 36.1945 23.1165 37 23.1165V23.0547ZM26.5 13.3386L33.205 15.6557C34.0106 15.9198 34.8397 16.1009 35.68 16.1963V20.3515C33.5945 20.7144 31.6998 21.8222 30.3283 23.4802C28.9569 25.1383 28.1963 27.2408 28.18 29.4188C28.3081 32.4105 29.1256 35.3279 30.565 37.93C31.2511 39.2943 32.1592 40.5273 33.25 41.5755C33.9634 42.2416 34.8074 42.742 35.725 43.0429V45.3909C35.725 45.5795 35.7611 45.7663 35.8312 45.9406C35.9013 46.1149 36.004 46.2733 36.1336 46.4067C36.2631 46.54 36.4169 46.6459 36.5862 46.7181C36.7554 46.7903 36.9368 46.8274 37.12 46.8274C37.3032 46.8274 37.4846 46.7903 37.6538 46.7181C37.8231 46.6459 37.9769 46.54 38.1064 46.4067C38.236 46.2733 38.3387 46.1149 38.4088 45.9406C38.4789 45.7663 38.515 45.5795 38.515 45.3909V43.0429C39.4353 42.7485 40.2806 42.2472 40.99 41.5755C42.0855 40.5279 42.9987 39.295 43.69 37.93C45.0928 35.3279 45.884 32.4235 46 29.4497C45.9943 27.2637 45.2385 25.1502 43.8661 23.4825C42.4937 21.8148 40.5931 20.7004 38.5 20.3361V16.2117C39.3408 16.1111 40.1699 15.9249 40.975 15.6557L47.755 13.3232C47.9275 13.2603 48.1122 13.2417 48.2932 13.2689C48.4742 13.2962 48.6461 13.3684 48.7938 13.4795C48.9416 13.5906 49.0608 13.7371 49.1412 13.9064C49.2215 14.0756 49.2606 14.2625 49.255 14.4508V42.8576C49.2549 43.6202 49.0215 44.3634 48.588 44.9817C48.1545 45.6001 47.5429 46.0621 46.84 46.3022L40 48.6192C38.0526 49.2871 35.9474 49.2871 34 48.6192L27.295 46.3022C26.4927 46.0284 25.6621 45.8522 24.82 45.777V17.9727C24.8167 17.6074 24.6784 17.2571 24.4331 16.9931C24.1879 16.7291 23.8542 16.5712 23.5 16.5516C23.3162 16.5515 23.1343 16.5893 22.9649 16.6626C22.7955 16.736 22.642 16.8434 22.5134 16.9787C22.3849 17.1139 22.2839 17.2743 22.2163 17.4503C22.1487 17.6262 22.116 17.8144 22.12 18.0036V45.8079C21.2595 45.9204 20.4141 46.1329 19.6 46.4412L14.23 48.5266C14.0666 48.6177 13.882 48.6611 13.6964 48.6522C13.5107 48.6432 13.3309 48.5821 13.1765 48.4756C13.0221 48.369 12.8989 48.221 12.8202 48.0476C12.7415 47.8742 12.7103 47.682 12.73 47.4916V19.1158C12.7448 18.329 12.9926 17.5657 13.4403 16.928C13.888 16.2903 14.5142 15.8086 15.235 15.5475L20.575 13.4468C21.5101 13.0819 22.5001 12.8884 23.5 12.8752C24.5183 12.8538 25.5327 13.0105 26.5 13.3386ZM23.5 10.0021C22.1668 10.0151 20.8463 10.2713 19.6 10.759L14.23 12.8134C12.9866 13.2969 11.9157 14.159 11.16 15.2849C10.4043 16.4108 9.99969 17.7471 10 19.1158V47.4916C10.0089 48.1331 10.1662 48.7632 10.4591 49.3294C10.7519 49.8957 11.1718 50.3818 11.6838 50.7474C12.1957 51.113 12.785 51.3475 13.4027 51.4314C14.0203 51.5153 14.6485 51.4461 15.235 51.2298L20.575 49.1599C22.478 48.4212 24.5695 48.3776 26.5 49.0363L33.205 51.3533C35.719 52.2034 38.431 52.2034 40.945 51.3533L47.725 49.0363C48.9818 48.6005 50.0743 47.7701 50.8492 46.6618C51.6241 45.5536 52.0422 44.2232 52.045 42.8576V14.4508C52.0371 13.8084 51.8831 13.1769 51.5953 12.607C51.3074 12.037 50.8938 11.5445 50.3877 11.169C49.8815 10.7934 49.2969 10.5454 48.6808 10.4446C48.0647 10.3439 47.4342 10.3934 46.84 10.5891L40 12.9216C38.0526 13.5894 35.9474 13.5894 34 12.9216L27.34 10.6045C26.1025 10.1805 24.8039 9.97674 23.5 10.0021Z" fill="#1C85E8"/>
    </g>
    </g>
    <defs>
    <clipPath id="clip0_35_74">
    <rect width="42" height="42" fill="white" transform="translate(10 10)"/>
    </clipPath>
    </defs>
</svg>
