<svg width="62" height="62" viewBox="0 0 62 62" fill="none" xmlns="http://www.w3.org/2000/svg">
    <g id="Frame 2">
        <g id="Group 2096" className="animated bounceIn">
        <path id="Vector" d="M14.7417 18.9901L19.8792 14.2561C20.0606 14.0879 20.2736 13.9575 20.5057 13.8724C20.7378 13.7873 20.9845 13.7493 21.2315 13.7604C21.4784 13.7716 21.7207 13.8318 21.9442 13.9375C22.1677 14.0432 22.3681 14.1923 22.5336 14.3762L26.0785 18.304C25.9072 18.527 25.3764 19.0416 24.6914 19.8992L22.585 22.6606C22.5295 22.7285 22.4835 22.8035 22.448 22.8836C21.8632 23.9162 21.4989 25.0592 21.378 26.2402C21.2571 27.4212 21.3824 28.6145 21.7459 29.7444C22.5792 32.0264 23.9001 34.0986 25.6161 35.8163C27.196 37.6722 29.199 39.1195 31.4558 40.0357C32.5191 40.457 33.6676 40.6177 34.8055 40.5043C35.9435 40.3909 37.0379 40.0068 37.9975 39.3839L40.9088 37.48C41.8164 36.8797 42.3815 36.3823 42.6213 36.2279L46.1661 40.0871C46.3373 40.2666 46.4707 40.4787 46.5584 40.7107C46.6461 40.9428 46.6864 41.1902 46.6768 41.4382C46.6672 41.6862 46.6079 41.9297 46.5026 42.1543C46.3972 42.3789 46.2479 42.58 46.0634 42.7457L40.9259 47.4968C39.4703 48.8175 36.4734 48.9547 33.1683 47.9599C30.0469 47.0305 27.1931 45.3661 24.8455 43.1059L17.7557 35.4732C15.7043 32.9388 14.2839 29.9523 13.6115 26.76C12.9094 23.381 13.2861 20.3966 14.7417 18.9901ZM12.5497 16.6917C9.74122 19.2645 9.62135 23.5525 10.4433 27.4289C11.1936 31.2213 12.8903 34.7618 15.3754 37.7201L22.4137 45.4043C25.1315 48.126 28.4968 50.1094 32.1921 51.1673C36.0281 52.3337 40.2409 52.5567 43.0494 49.9667L48.1869 45.2327C49.1807 44.3107 49.7707 43.0328 49.8284 41.6772C49.8861 40.3216 49.4069 38.998 48.4951 37.9946L45.0188 34.1354C44.5744 33.5979 43.977 33.209 43.3063 33.0205C42.6432 32.8915 41.9561 32.9881 41.354 33.2949C40.5856 33.7451 39.8579 34.2616 39.1791 34.8386L36.285 36.7596C35.7545 37.1209 35.1392 37.3377 34.4997 37.3888C33.8602 37.4399 33.2184 37.3236 32.6374 37.0512C30.8656 36.2745 29.2955 35.1009 28.0479 33.6208C26.668 32.2298 25.5946 30.5645 24.8969 28.7325C24.6384 28.0271 24.5411 27.2726 24.6123 26.5246C24.6834 25.7765 24.9211 25.054 25.3079 24.4101L27.3457 21.8545C27.9723 21.2169 28.5451 20.5285 29.0582 19.7962C29.4112 19.2218 29.562 18.5455 29.4864 17.8752C29.3665 17.173 29.0313 16.5255 28.5274 16.0228L24.914 12.2493C23.9934 11.254 22.7175 10.6631 21.3641 10.6053C20.0106 10.5474 18.6891 11.0274 17.6872 11.9406L12.5497 16.6917Z" fill="#1C85E8"/>
        <path id="Vector_2" d="M15.0843 14.3075C14.8003 14.6227 14.6431 15.0321 14.6431 15.4567C14.6431 15.8812 14.8003 16.2907 15.0843 16.6059L22.174 24.3414C22.478 24.6379 22.881 24.8108 23.3049 24.8266C23.7289 24.8425 24.1436 24.7001 24.4688 24.4272C24.6254 24.2843 24.7523 24.1119 24.8422 23.9199C24.9321 23.7278 24.9833 23.5199 24.9929 23.308C25.0024 23.096 24.9701 22.8843 24.8978 22.6849C24.8255 22.4855 24.7146 22.3024 24.5715 22.146L17.3962 14.4104C17.2531 14.2484 17.0789 14.117 16.8841 14.0238C16.6893 13.9306 16.4777 13.8776 16.262 13.868C16.0463 13.8584 15.8309 13.8924 15.6285 13.9679C15.4262 14.0434 15.2411 14.1589 15.0843 14.3075Z" fill="#1C85E8"/>
        <path id="Vector_3" d="M36.371 37.4799C36.087 37.795 35.9298 38.2045 35.9298 38.629C35.9298 39.0536 36.087 39.4631 36.371 39.7782L43.4779 47.5138C43.7685 47.83 44.1727 48.0175 44.6015 48.0352C45.0302 48.0529 45.4484 47.8993 45.7641 47.6081C46.0797 47.317 46.267 46.9122 46.2846 46.4828C46.3023 46.0534 46.1489 45.6345 45.8583 45.3183L38.6829 37.5828C38.5398 37.4208 38.3657 37.2893 38.1708 37.1962C37.976 37.103 37.7644 37.05 37.5487 37.0404C37.333 37.0308 37.1176 37.0648 36.9153 37.1403C36.7129 37.2158 36.5278 37.3312 36.371 37.4799Z" fill="#1C85E8"/>
        <path id="Vector_4" d="M37.2247 17.2749C36.989 17.4933 36.8238 17.7772 36.7504 18.0903C36.6771 18.4034 36.6989 18.7313 36.813 19.0319C36.9272 19.3325 37.1285 19.5921 37.391 19.7772C37.6536 19.9623 37.9655 20.0645 38.2865 20.0707C39.2981 20.1197 40.2493 20.5673 40.9327 21.316C41.616 22.0647 41.976 23.0536 41.9341 24.0672C41.9263 24.2789 41.9601 24.4901 42.0337 24.6887C42.1073 24.8873 42.2193 25.0695 42.3632 25.2248C42.5071 25.3801 42.6802 25.5055 42.8725 25.5938C43.0648 25.6821 43.2725 25.7316 43.4839 25.7395C43.6953 25.7474 43.9062 25.7135 44.1045 25.6397C44.3028 25.566 44.4847 25.4538 44.6398 25.3097C44.7948 25.1656 44.92 24.9922 45.0082 24.7996C45.0963 24.607 45.1458 24.3989 45.1536 24.1872C45.2121 23.2407 45.0783 22.2922 44.7604 21.3989C44.4425 20.5057 43.9471 19.6862 43.3041 18.9901C42.0332 17.6186 40.273 16.8049 38.4064 16.7261C37.9557 16.746 37.5311 16.9432 37.2247 17.2749Z" fill="#1C85E8"/>
        <path id="Vector_5" d="M37.3981 10.5341C37.191 10.7637 37.0543 11.048 37.0042 11.3533C36.954 11.6586 36.9927 11.9719 37.1154 12.2558C37.2382 12.5396 37.4399 12.7822 37.6965 12.9544C37.9531 13.1266 38.2538 13.2212 38.5626 13.227C39.9566 13.2843 41.3255 13.6166 42.591 14.205C43.8564 14.7933 44.9935 15.626 45.937 16.6554C46.8804 17.6848 47.6117 18.8906 48.0889 20.2037C48.5661 21.5167 48.7798 22.9112 48.7178 24.3072C48.6938 24.7511 48.8429 25.1871 49.1336 25.523C49.4244 25.859 49.834 26.0688 50.2761 26.1082C50.7303 26.1082 51.1659 25.9275 51.4871 25.6058C51.8082 25.2841 51.9886 24.8479 51.9886 24.393C52.0643 22.5716 51.7795 20.7532 51.1507 19.0424C50.5219 17.3317 49.5615 15.7624 48.3248 14.4249C47.0881 13.0874 45.5995 12.0081 43.9447 11.2491C42.2898 10.4901 40.5015 10.0664 38.6825 10.0024C38.4423 9.98929 38.2023 10.0303 37.9801 10.1223C37.7578 10.2143 37.5589 10.355 37.3981 10.5341Z" fill="#1C85E8"/>
        <path id="Vector_6" d="M34.3983 25.0277C34.242 25.1719 34.1156 25.3454 34.0263 25.5385C33.937 25.7316 33.8865 25.9404 33.8777 26.1531C33.869 26.3657 33.9022 26.578 33.9753 26.7778C34.0485 26.9776 34.1602 27.161 34.3041 27.3175C34.4481 27.474 34.6214 27.6007 34.8142 27.6901C35.0069 27.7796 35.2154 27.8301 35.4277 27.8389C35.64 27.8477 35.852 27.8145 36.0514 27.7412C36.2509 27.6679 36.434 27.556 36.5903 27.4118L37.8747 26.2283C38.1904 25.9372 38.3776 25.5324 38.3953 25.103C38.4129 24.6736 38.2596 24.2547 37.9689 23.9385C37.6782 23.6224 37.274 23.4348 36.8453 23.4171C36.4166 23.3995 35.9984 23.5531 35.6827 23.8442L34.3983 25.0277Z" fill="#1C85E8"/>
        </g>
    </g>
</svg>
